<mxfile host="app.diagrams.net" modified="2024-03-13T14:30:55.842Z" agent="Mozilla/5.0 (Windows NT 10.0; Win64; x64) AppleWebKit/537.36 (KHTML, like Gecko) Chrome/122.0.0.0 Safari/537.36" version="24.0.5" etag="7fs0IWJK_Wk_oCwARYK-" type="github">
  <diagram name="Page-1" id="rfcSEsMY0598FsQCbdkh">
    <mxGraphModel>
      <root>
        <mxCell id="0" />
        <mxCell id="1" parent="0" />
      </root>
    </mxGraphModel>
  </diagram>
</mxfile>
